<svg xmlns="http://www.w3.org/2000/svg" width="1440" height="860" viewBox="0 0 1440 860" fill="none" role="img" aria-labelledby="title desc">
<title>Hourly carbon forecast for US-MIDW-MISO</title>
<desc>Generated from real project forecast and GPU profiling data.</desc>
<defs>
  <linearGradient id="page" x1="0" y1="0" x2="1" y2="1">
    <stop offset="0%" stop-color="#1b1016"/>
    <stop offset="100%" stop-color="#0a0709"/>
  </linearGradient>
  <linearGradient id="accentFill" x1="0" y1="0" x2="0" y2="1">
    <stop offset="0%" stop-color="#9fe3d4" stop-opacity="0.34"/>
    <stop offset="100%" stop-color="#9fe3d4" stop-opacity="0.05"/>
  </linearGradient>
  <filter id="softShadow" x="-20%" y="-20%" width="140%" height="140%">
    <feDropShadow dx="0" dy="18" stdDeviation="24" flood-color="#000" flood-opacity="0.32"/>
  </filter>
</defs>
<rect x="0" y="0" width="1440" height="860" fill="url(#page)"/>
<rect x="24" y="24" width="1392" height="812" rx="24" fill="rgba(255,255,255,0.015)" stroke="rgba(198,166,171,0.14)"/>
<text x="84" y="98" fill="#f7f1ef" font-family="Space Grotesk, Segoe UI, sans-serif" font-size="40" font-weight="700">Hourly carbon forecast for US-MIDW-MISO</text><text x="84" y="136" fill="#bfa9ae" font-family="Inter, Segoe UI, sans-serif" font-size="20">Each point is one real forecast row from the scheduler dataset, plotted on a true 350-700 gCO2/kWh scale.</text><rect x="70" y="166" width="1300" height="610" rx="20" fill="#171015" stroke="rgba(198,166,171,0.1)"/><rect x="150" y="230" width="1090" height="450" rx="14" fill="rgba(255,255,255,0.01)" stroke="rgba(255,255,255,0.04)"/><line x1="150" y1="680.0" x2="1240" y2="680.0" stroke="#3a2b31" stroke-width="1"/><text x="122" y="686.0" text-anchor="end" fill="#7d6870" font-family="Inter, Segoe UI, sans-serif" font-size="15">350</text><line x1="150" y1="615.7" x2="1240" y2="615.7" stroke="#3a2b31" stroke-width="1"/><text x="122" y="621.7" text-anchor="end" fill="#7d6870" font-family="Inter, Segoe UI, sans-serif" font-size="15">400</text><line x1="150" y1="551.4" x2="1240" y2="551.4" stroke="#3a2b31" stroke-width="1"/><text x="122" y="557.4" text-anchor="end" fill="#7d6870" font-family="Inter, Segoe UI, sans-serif" font-size="15">450</text><line x1="150" y1="487.1" x2="1240" y2="487.1" stroke="#3a2b31" stroke-width="1"/><text x="122" y="493.1" text-anchor="end" fill="#7d6870" font-family="Inter, Segoe UI, sans-serif" font-size="15">500</text><line x1="150" y1="422.9" x2="1240" y2="422.9" stroke="#3a2b31" stroke-width="1"/><text x="122" y="428.9" text-anchor="end" fill="#7d6870" font-family="Inter, Segoe UI, sans-serif" font-size="15">550</text><line x1="150" y1="358.6" x2="1240" y2="358.6" stroke="#3a2b31" stroke-width="1"/><text x="122" y="364.6" text-anchor="end" fill="#7d6870" font-family="Inter, Segoe UI, sans-serif" font-size="15">600</text><line x1="150" y1="294.3" x2="1240" y2="294.3" stroke="#3a2b31" stroke-width="1"/><text x="122" y="300.3" text-anchor="end" fill="#7d6870" font-family="Inter, Segoe UI, sans-serif" font-size="15">650</text><line x1="150" y1="230.0" x2="1240" y2="230.0" stroke="#3a2b31" stroke-width="1"/><text x="122" y="236.0" text-anchor="end" fill="#7d6870" font-family="Inter, Segoe UI, sans-serif" font-size="15">700</text><line x1="150.0" y1="230" x2="150.0" y2="680" stroke="rgba(255,255,255,0.03)" stroke-width="1"/><text x="150.0" y="716" text-anchor="middle" fill="#7d6870" font-family="Inter, Segoe UI, sans-serif" font-size="15">01:00</text><line x1="331.7" y1="230" x2="331.7" y2="680" stroke="rgba(255,255,255,0.03)" stroke-width="1"/><text x="331.7" y="716" text-anchor="middle" fill="#7d6870" font-family="Inter, Segoe UI, sans-serif" font-size="15">05:00</text><line x1="513.3" y1="230" x2="513.3" y2="680" stroke="rgba(255,255,255,0.03)" stroke-width="1"/><text x="513.3" y="716" text-anchor="middle" fill="#7d6870" font-family="Inter, Segoe UI, sans-serif" font-size="15">09:00</text><line x1="695.0" y1="230" x2="695.0" y2="680" stroke="rgba(255,255,255,0.03)" stroke-width="1"/><text x="695.0" y="716" text-anchor="middle" fill="#7d6870" font-family="Inter, Segoe UI, sans-serif" font-size="15">13:00</text><line x1="876.7" y1="230" x2="876.7" y2="680" stroke="rgba(255,255,255,0.03)" stroke-width="1"/><text x="876.7" y="716" text-anchor="middle" fill="#7d6870" font-family="Inter, Segoe UI, sans-serif" font-size="15">17:00</text><line x1="1058.3" y1="230" x2="1058.3" y2="680" stroke="rgba(255,255,255,0.03)" stroke-width="1"/><text x="1058.3" y="716" text-anchor="middle" fill="#7d6870" font-family="Inter, Segoe UI, sans-serif" font-size="15">21:00</text><line x1="1240.0" y1="230" x2="1240.0" y2="680" stroke="rgba(255,255,255,0.03)" stroke-width="1"/><text x="1240.0" y="716" text-anchor="middle" fill="#7d6870" font-family="Inter, Segoe UI, sans-serif" font-size="15">01:00</text><polygon points="150,680 150.0,356.0 195.4,395.9 240.8,539.9 286.2,437.0 331.7,606.7 377.1,515.4 422.5,385.6 467.9,533.4 513.3,285.3 558.8,383.0 604.2,583.6 649.6,440.9 695.0,406.1 740.4,393.3 785.8,637.6 831.2,455.0 876.7,458.9 922.1,453.7 967.5,519.3 1012.9,596.4 1058.3,539.9 1103.8,442.1 1149.2,417.7 1194.6,376.6 1240.0,435.7 1240,680" fill="url(#accentFill)"/><polyline points="150.0,356.0 195.4,395.9 240.8,539.9 286.2,437.0 331.7,606.7 377.1,515.4 422.5,385.6 467.9,533.4 513.3,285.3 558.8,383.0 604.2,583.6 649.6,440.9 695.0,406.1 740.4,393.3 785.8,637.6 831.2,455.0 876.7,458.9 922.1,453.7 967.5,519.3 1012.9,596.4 1058.3,539.9 1103.8,442.1 1149.2,417.7 1194.6,376.6 1240.0,435.7" fill="none" stroke="#9fe3d4" stroke-width="4" stroke-linejoin="round" stroke-linecap="round"/><circle cx="150.0" cy="356.0" r="3.5" fill="#9fe3d4"/><circle cx="195.4" cy="395.9" r="3.5" fill="#9fe3d4"/><circle cx="240.8" cy="539.9" r="3.5" fill="#9fe3d4"/><circle cx="286.2" cy="437.0" r="3.5" fill="#9fe3d4"/><circle cx="331.7" cy="606.7" r="3.5" fill="#9fe3d4"/><circle cx="377.1" cy="515.4" r="3.5" fill="#9fe3d4"/><circle cx="422.5" cy="385.6" r="3.5" fill="#9fe3d4"/><circle cx="467.9" cy="533.4" r="3.5" fill="#9fe3d4"/><circle cx="513.3" cy="285.3" r="3.5" fill="#9fe3d4"/><circle cx="558.8" cy="383.0" r="3.5" fill="#9fe3d4"/><circle cx="604.2" cy="583.6" r="3.5" fill="#9fe3d4"/><circle cx="649.6" cy="440.9" r="3.5" fill="#9fe3d4"/><circle cx="695.0" cy="406.1" r="3.5" fill="#9fe3d4"/><circle cx="740.4" cy="393.3" r="3.5" fill="#9fe3d4"/><circle cx="785.8" cy="637.6" r="3.5" fill="#9fe3d4"/><circle cx="831.2" cy="455.0" r="3.5" fill="#9fe3d4"/><circle cx="876.7" cy="458.9" r="3.5" fill="#9fe3d4"/><circle cx="922.1" cy="453.7" r="3.5" fill="#9fe3d4"/><circle cx="967.5" cy="519.3" r="3.5" fill="#9fe3d4"/><circle cx="1012.9" cy="596.4" r="3.5" fill="#9fe3d4"/><circle cx="1058.3" cy="539.9" r="3.5" fill="#9fe3d4"/><circle cx="1103.8" cy="442.1" r="3.5" fill="#9fe3d4"/><circle cx="1149.2" cy="417.7" r="3.5" fill="#9fe3d4"/><circle cx="1194.6" cy="376.6" r="3.5" fill="#9fe3d4"/><circle cx="1240.0" cy="435.7" r="3.5" fill="#9fe3d4"/><circle cx="785.8" cy="637.6" r="7" fill="#9fe3d4" stroke="#171015" stroke-width="3"/><rect x="805.8" y="601.6" width="148" height="52" rx="12" fill="rgba(11,8,10,0.94)" stroke="rgba(255,255,255,0.08)"/><text x="817.8" y="622.6" fill="#f7f1ef" font-family="Space Grotesk, Segoe UI, sans-serif" font-size="16" font-weight="700">Lowest: 383 gCO2/kWh</text><text x="817.8" y="640.6" fill="#bfa9ae" font-family="Inter, Segoe UI, sans-serif" font-size="13">15:00 UTC</text><circle cx="513.3" cy="285.3" r="7" fill="#e4a6b3" stroke="#171015" stroke-width="3"/><rect x="353.3" y="251.3" width="148" height="52" rx="12" fill="rgba(11,8,10,0.94)" stroke="rgba(255,255,255,0.08)"/><text x="365.3" y="272.3" fill="#f7f1ef" font-family="Space Grotesk, Segoe UI, sans-serif" font-size="16" font-weight="700">Highest: 657 gCO2/kWh</text><text x="365.3" y="290.3" fill="#bfa9ae" font-family="Inter, Segoe UI, sans-serif" font-size="13">09:00 UTC</text><text x="72" y="206" fill="#7d6870" font-family="Inter, Segoe UI, sans-serif" font-size="14">gCO2/kWh</text><text x="1240" y="716" text-anchor="end" fill="#7d6870" font-family="Inter, Segoe UI, sans-serif" font-size="14">forecast hour</text><rect x="1100" y="72" width="210" height="68" rx="16" fill="rgba(255,255,255,0.03)" stroke="rgba(255,255,255,0.06)"/><text x="1120" y="98" fill="#bfa9ae" font-family="Inter, Segoe UI, sans-serif" font-size="14">Forecast spread</text><text x="1120" y="126" fill="#f7f1ef" font-family="Space Grotesk, Segoe UI, sans-serif" font-size="28" font-weight="700">274 gCO2/kWh</text>
</svg>