<svg xmlns="http://www.w3.org/2000/svg" width="1440" height="860" viewBox="0 0 1440 860" fill="none" role="img" aria-labelledby="title desc">
<title>GPU power profile from scheduler repository log</title>
<desc>Generated from real project forecast and GPU profiling data.</desc>
<defs>
  <linearGradient id="page" x1="0" y1="0" x2="1" y2="1">
    <stop offset="0%" stop-color="#1b1016"/>
    <stop offset="100%" stop-color="#0a0709"/>
  </linearGradient>
  <linearGradient id="accentFill" x1="0" y1="0" x2="0" y2="1">
    <stop offset="0%" stop-color="#9fe3d4" stop-opacity="0.34"/>
    <stop offset="100%" stop-color="#9fe3d4" stop-opacity="0.05"/>
  </linearGradient>
  <filter id="softShadow" x="-20%" y="-20%" width="140%" height="140%">
    <feDropShadow dx="0" dy="18" stdDeviation="24" flood-color="#000" flood-opacity="0.32"/>
  </filter>
</defs>
<rect x="0" y="0" width="1440" height="860" fill="url(#page)"/>
<rect x="24" y="24" width="1392" height="812" rx="24" fill="rgba(255,255,255,0.015)" stroke="rgba(198,166,171,0.14)"/>
<text x="84" y="98" fill="#f7f1ef" font-family="Space Grotesk, Segoe UI, sans-serif" font-size="40" font-weight="700">GPU profiling feeds the scheduler when job energy is unknown</text><text x="84" y="136" fill="#bfa9ae" font-family="Inter, Segoe UI, sans-serif" font-size="20">The plotted power trace comes from the repository log and is shown on a true 4-12 W axis before integration into Wh and kWh.</text><rect x="70" y="166" width="1300" height="610" rx="20" fill="#171015" stroke="rgba(198,166,171,0.1)"/><rect x="150" y="230" width="1090" height="450" rx="14" fill="rgba(255,255,255,0.01)" stroke="rgba(255,255,255,0.04)"/><line x1="150" y1="680.0" x2="1240" y2="680.0" stroke="#3a2b31" stroke-width="1"/><text x="122" y="686.0" text-anchor="end" fill="#7d6870" font-family="Inter, Segoe UI, sans-serif" font-size="15">4 W</text><line x1="150" y1="567.5" x2="1240" y2="567.5" stroke="#3a2b31" stroke-width="1"/><text x="122" y="573.5" text-anchor="end" fill="#7d6870" font-family="Inter, Segoe UI, sans-serif" font-size="15">6 W</text><line x1="150" y1="455.0" x2="1240" y2="455.0" stroke="#3a2b31" stroke-width="1"/><text x="122" y="461.0" text-anchor="end" fill="#7d6870" font-family="Inter, Segoe UI, sans-serif" font-size="15">8 W</text><line x1="150" y1="342.5" x2="1240" y2="342.5" stroke="#3a2b31" stroke-width="1"/><text x="122" y="348.5" text-anchor="end" fill="#7d6870" font-family="Inter, Segoe UI, sans-serif" font-size="15">10 W</text><line x1="150" y1="230.0" x2="1240" y2="230.0" stroke="#3a2b31" stroke-width="1"/><text x="122" y="236.0" text-anchor="end" fill="#7d6870" font-family="Inter, Segoe UI, sans-serif" font-size="15">12 W</text><line x1="150.0" y1="230" x2="150.0" y2="680" stroke="rgba(255,255,255,0.03)" stroke-width="1"/><text x="150.0" y="716" text-anchor="middle" fill="#7d6870" font-family="Inter, Segoe UI, sans-serif" font-size="15">0s</text><line x1="330.0" y1="230" x2="330.0" y2="680" stroke="rgba(255,255,255,0.03)" stroke-width="1"/><text x="330.0" y="716" text-anchor="middle" fill="#7d6870" font-family="Inter, Segoe UI, sans-serif" font-size="15">5s</text><line x1="510.0" y1="230" x2="510.0" y2="680" stroke="rgba(255,255,255,0.03)" stroke-width="1"/><text x="510.0" y="716" text-anchor="middle" fill="#7d6870" font-family="Inter, Segoe UI, sans-serif" font-size="15">10s</text><line x1="690.0" y1="230" x2="690.0" y2="680" stroke="rgba(255,255,255,0.03)" stroke-width="1"/><text x="690.0" y="716" text-anchor="middle" fill="#7d6870" font-family="Inter, Segoe UI, sans-serif" font-size="15">15s</text><line x1="870.0" y1="230" x2="870.0" y2="680" stroke="rgba(255,255,255,0.03)" stroke-width="1"/><text x="870.0" y="716" text-anchor="middle" fill="#7d6870" font-family="Inter, Segoe UI, sans-serif" font-size="15">20s</text><line x1="1050.0" y1="230" x2="1050.0" y2="680" stroke="rgba(255,255,255,0.03)" stroke-width="1"/><text x="1050.0" y="716" text-anchor="middle" fill="#7d6870" font-family="Inter, Segoe UI, sans-serif" font-size="15">25s</text><line x1="1230.0" y1="230" x2="1230.0" y2="680" stroke="rgba(255,255,255,0.03)" stroke-width="1"/><text x="1230.0" y="716" text-anchor="middle" fill="#7d6870" font-family="Inter, Segoe UI, sans-serif" font-size="15">30s</text><polygon points="150,680 150.0,568.6 189.5,624.3 228.9,620.4 268.8,617.0 308.9,615.9 348.4,615.9 388.3,617.6 428.4,615.3 470.5,615.9 512.7,616.4 554.9,617.0 595.6,615.3 637.4,617.6 680.2,614.8 722.0,614.8 764.2,496.1 804.6,579.3 844.3,512.9 884.6,266.0 924.4,334.1 963.9,402.7 1003.1,446.0 1042.5,454.4 1082.3,438.7 1121.2,442.6 1160.9,412.8 1200.8,335.8 1240.0,333.5 1240,680" fill="url(#accentFill)"/><polyline points="150.0,568.6 189.5,624.3 228.9,620.4 268.8,617.0 308.9,615.9 348.4,615.9 388.3,617.6 428.4,615.3 470.5,615.9 512.7,616.4 554.9,617.0 595.6,615.3 637.4,617.6 680.2,614.8 722.0,614.8 764.2,496.1 804.6,579.3 844.3,512.9 884.6,266.0 924.4,334.1 963.9,402.7 1003.1,446.0 1042.5,454.4 1082.3,438.7 1121.2,442.6 1160.9,412.8 1200.8,335.8 1240.0,333.5" fill="none" stroke="#9fe3d4" stroke-width="4" stroke-linejoin="round" stroke-linecap="round"/><circle cx="884.6" cy="266.0" r="7" fill="#e4a6b3" stroke="#171015" stroke-width="3"/><rect x="996" y="86" width="314" height="102" rx="16" fill="rgba(255,255,255,0.03)" stroke="rgba(255,255,255,0.06)"/><text x="1018" y="114" fill="#bfa9ae" font-family="Inter, Segoe UI, sans-serif" font-size="14">Profile summary</text><text x="1018" y="144" fill="#f7f1ef" font-family="Space Grotesk, Segoe UI, sans-serif" font-size="28" font-weight="700">0.056 Wh total</text><text x="1018" y="170" fill="#bfa9ae" font-family="Inter, Segoe UI, sans-serif" font-size="14">28 samples | avg 6.78 W | peak 11.36 W</text><text x="896.6" y="252.0" fill="#e4a6b3" font-family="Inter, Segoe UI, sans-serif" font-size="14">Peak 11.36 W at 20.4s</text><text x="82" y="206" fill="#7d6870" font-family="Inter, Segoe UI, sans-serif" font-size="14">power draw</text><text x="1240" y="716" text-anchor="end" fill="#7d6870" font-family="Inter, Segoe UI, sans-serif" font-size="14">elapsed seconds</text>
</svg>