<svg xmlns="http://www.w3.org/2000/svg" width="1200" height="760" viewBox="0 0 1200 760" fill="none" role="img" aria-labelledby="title desc">
<title>Carbon-Aware AI Scheduler visualization</title>
<desc>Generated from real carbon forecast and GPU profiling data in the project repository.</desc>
<defs>
  <linearGradient id="bg" x1="0" y1="0" x2="1" y2="1">
    <stop offset="0%" stop-color="#1c0d14"/>
    <stop offset="100%" stop-color="#090507"/>
  </linearGradient>
  <linearGradient id="accentLine" x1="0" y1="0" x2="1" y2="0">
    <stop offset="0%" stop-color="#a2f3e2"/>
    <stop offset="100%" stop-color="#6fd2bd"/>
  </linearGradient>
  <linearGradient id="warmLine" x1="0" y1="0" x2="1" y2="0">
    <stop offset="0%" stop-color="#ffb7c1"/>
    <stop offset="100%" stop-color="#8b2134"/>
  </linearGradient>
  <filter id="shadow" x="-20%" y="-20%" width="140%" height="140%">
    <feDropShadow dx="0" dy="18" stdDeviation="24" flood-color="#000" flood-opacity="0.35"/>
  </filter>
</defs>
<rect x="0.75" y="0.75" width="1198.5" height="758.5" rx="24" fill="url(#bg)" stroke="rgba(198,166,171,0.16)"/>
<g filter="url(#shadow)"><rect x="52" y="70" width="1096" height="620" rx="28" fill="rgba(255,255,255,0.02)" stroke="rgba(255,255,255,0.04)"/></g><text x="90" y="110" fill="#f8f4f1" font-family="Space Grotesk, Segoe UI, sans-serif" font-size="34" font-weight="700">Hourly carbon forecast for US-MIDW-MISO</text><text x="90" y="145" fill="#b79fa4" font-family="Inter, Segoe UI, sans-serif" font-size="20">25 forecast points from the project CSV show why timing matters before a job even starts.</text><line x1="90" y1="590.0" x2="1060" y2="590.0" stroke="rgba(255,255,255,0.08)" stroke-width="1"/><text x="36" y="596.0" fill="#b79fa4" font-family="Inter, Segoe UI, sans-serif" font-size="16">383</text><line x1="90" y1="472.5" x2="1060" y2="472.5" stroke="rgba(255,255,255,0.08)" stroke-width="1"/><text x="36" y="478.5" fill="#b79fa4" font-family="Inter, Segoe UI, sans-serif" font-size="16">452</text><line x1="90" y1="355.0" x2="1060" y2="355.0" stroke="rgba(255,255,255,0.08)" stroke-width="1"/><text x="36" y="361.0" fill="#b79fa4" font-family="Inter, Segoe UI, sans-serif" font-size="16">520</text><line x1="90" y1="237.5" x2="1060" y2="237.5" stroke="rgba(255,255,255,0.08)" stroke-width="1"/><text x="36" y="243.5" fill="#b79fa4" font-family="Inter, Segoe UI, sans-serif" font-size="16">588</text><line x1="90" y1="120.0" x2="1060" y2="120.0" stroke="rgba(255,255,255,0.08)" stroke-width="1"/><text x="36" y="126.0" fill="#b79fa4" font-family="Inter, Segoe UI, sans-serif" font-size="16">657</text><line x1="90.0" y1="120" x2="90.0" y2="590" stroke="rgba(255,255,255,0.04)" stroke-width="1"/><text x="90.0" y="628" text-anchor="middle" fill="#b79fa4" font-family="Inter, Segoe UI, sans-serif" font-size="15">01:00 UTC</text><line x1="251.7" y1="120" x2="251.7" y2="590" stroke="rgba(255,255,255,0.04)" stroke-width="1"/><text x="251.7" y="628" text-anchor="middle" fill="#b79fa4" font-family="Inter, Segoe UI, sans-serif" font-size="15">05:00 UTC</text><line x1="413.3" y1="120" x2="413.3" y2="590" stroke="rgba(255,255,255,0.04)" stroke-width="1"/><text x="413.3" y="628" text-anchor="middle" fill="#b79fa4" font-family="Inter, Segoe UI, sans-serif" font-size="15">09:00 UTC</text><line x1="575.0" y1="120" x2="575.0" y2="590" stroke="rgba(255,255,255,0.04)" stroke-width="1"/><text x="575.0" y="628" text-anchor="middle" fill="#b79fa4" font-family="Inter, Segoe UI, sans-serif" font-size="15">13:00 UTC</text><line x1="736.7" y1="120" x2="736.7" y2="590" stroke="rgba(255,255,255,0.04)" stroke-width="1"/><text x="736.7" y="628" text-anchor="middle" fill="#b79fa4" font-family="Inter, Segoe UI, sans-serif" font-size="15">17:00 UTC</text><line x1="898.3" y1="120" x2="898.3" y2="590" stroke="rgba(255,255,255,0.04)" stroke-width="1"/><text x="898.3" y="628" text-anchor="middle" fill="#b79fa4" font-family="Inter, Segoe UI, sans-serif" font-size="15">21:00 UTC</text><line x1="1060.0" y1="120" x2="1060.0" y2="590" stroke="rgba(255,255,255,0.04)" stroke-width="1"/><text x="1060.0" y="628" text-anchor="middle" fill="#b79fa4" font-family="Inter, Segoe UI, sans-serif" font-size="15">01:00 UTC</text><polyline points="90.0,214.3 130.4,267.5 170.8,459.6 211.2,322.4 251.7,548.8 292.1,427.0 332.5,253.8 372.9,451.1 413.3,120.0 453.8,250.4 494.2,518.0 534.6,327.6 575.0,281.2 615.4,264.1 655.8,590.0 696.2,346.4 736.7,351.6 777.1,344.7 817.5,432.2 857.9,535.1 898.3,459.6 938.8,329.3 979.2,296.7 1019.6,241.8 1060.0,320.7" fill="none" stroke="url(#accentLine)" stroke-width="6" stroke-linecap="round" stroke-linejoin="round"/><circle cx="655.8" cy="590.0" r="8" fill="#6fd2bd" stroke="#081114" stroke-width="4"/><circle cx="413.3" cy="120.0" r="8" fill="#ffb7c1" stroke="#17090d" stroke-width="4"/><circle cx="292.1" cy="427.0" r="6" fill="#d0f1e8"/><circle cx="857.9" cy="535.1" r="6" fill="#d0f1e8"/><rect x="569.8" y="502.0" width="172" height="64" rx="16" fill="rgba(10,7,9,0.88)" stroke="rgba(111,210,189,0.35)"/><text x="583.8" y="532.0" fill="#d0f1e8" font-family="Space Grotesk, Segoe UI, sans-serif" font-size="18" font-weight="700">Cleanest hour</text><text x="583.8" y="556.0" fill="#f8f4f1" font-family="Inter, Segoe UI, sans-serif" font-size="16">383 gCO2/kWh at 15:00 UTC</text><rect x="343.3" y="146.0" width="188" height="64" rx="16" fill="rgba(10,7,9,0.88)" stroke="rgba(255,183,193,0.35)"/><text x="357.3" y="176.0" fill="#ffd5dc" font-family="Space Grotesk, Segoe UI, sans-serif" font-size="18" font-weight="700">Dirtiest hour</text><text x="357.3" y="200.0" fill="#f8f4f1" font-family="Inter, Segoe UI, sans-serif" font-size="16">657 gCO2/kWh at 09:00 UTC</text><rect x="868" y="104" width="220" height="92" rx="18" fill="rgba(255,255,255,0.03)" stroke="rgba(255,255,255,0.06)"/><text x="892" y="138" fill="#b79fa4" font-family="Inter, Segoe UI, sans-serif" font-size="16">Forecast spread</text><text x="892" y="182" fill="#f8f4f1" font-family="Space Grotesk, Segoe UI, sans-serif" font-size="34" font-weight="700">274 gCO2/kWh</text>
</svg>