<svg xmlns="http://www.w3.org/2000/svg" width="1440" height="860" viewBox="0 0 1440 860" fill="none" role="img" aria-labelledby="title desc">
<title>Emissions spread across job lengths</title>
<desc>Generated from real project forecast and GPU profiling data.</desc>
<defs>
  <linearGradient id="page" x1="0" y1="0" x2="1" y2="1">
    <stop offset="0%" stop-color="#1b1016"/>
    <stop offset="100%" stop-color="#0a0709"/>
  </linearGradient>
  <linearGradient id="accentFill" x1="0" y1="0" x2="0" y2="1">
    <stop offset="0%" stop-color="#9fe3d4" stop-opacity="0.34"/>
    <stop offset="100%" stop-color="#9fe3d4" stop-opacity="0.05"/>
  </linearGradient>
  <filter id="softShadow" x="-20%" y="-20%" width="140%" height="140%">
    <feDropShadow dx="0" dy="18" stdDeviation="24" flood-color="#000" flood-opacity="0.32"/>
  </filter>
</defs>
<rect x="0" y="0" width="1440" height="860" fill="url(#page)"/>
<rect x="24" y="24" width="1392" height="812" rx="24" fill="rgba(255,255,255,0.015)" stroke="rgba(198,166,171,0.14)"/>
<text x="84" y="98" fill="#f7f1ef" font-family="Space Grotesk, Segoe UI, sans-serif" font-size="40" font-weight="700">Emissions spread stays material across job lengths</text><text x="84" y="136" fill="#bfa9ae" font-family="Inter, Segoe UI, sans-serif" font-size="20">Grouped bars share a true 0-1600 gCO2 axis for direct comparison across 2h, 3h, and 4h scheduling windows.</text><rect x="70" y="166" width="1300" height="610" rx="20" fill="#171015" stroke="rgba(198,166,171,0.1)"/><rect x="160" y="230" width="1070" height="450" rx="14" fill="rgba(255,255,255,0.01)" stroke="rgba(255,255,255,0.04)"/><line x1="160" y1="680.0" x2="1230" y2="680.0" stroke="#3a2b31" stroke-width="1"/><text x="132" y="686.0" text-anchor="end" fill="#7d6870" font-family="Inter, Segoe UI, sans-serif" font-size="15">0</text><line x1="160" y1="623.8" x2="1230" y2="623.8" stroke="#3a2b31" stroke-width="1"/><text x="132" y="629.8" text-anchor="end" fill="#7d6870" font-family="Inter, Segoe UI, sans-serif" font-size="15">200</text><line x1="160" y1="567.5" x2="1230" y2="567.5" stroke="#3a2b31" stroke-width="1"/><text x="132" y="573.5" text-anchor="end" fill="#7d6870" font-family="Inter, Segoe UI, sans-serif" font-size="15">400</text><line x1="160" y1="511.2" x2="1230" y2="511.2" stroke="#3a2b31" stroke-width="1"/><text x="132" y="517.2" text-anchor="end" fill="#7d6870" font-family="Inter, Segoe UI, sans-serif" font-size="15">600</text><line x1="160" y1="455.0" x2="1230" y2="455.0" stroke="#3a2b31" stroke-width="1"/><text x="132" y="461.0" text-anchor="end" fill="#7d6870" font-family="Inter, Segoe UI, sans-serif" font-size="15">800</text><line x1="160" y1="398.8" x2="1230" y2="398.8" stroke="#3a2b31" stroke-width="1"/><text x="132" y="404.8" text-anchor="end" fill="#7d6870" font-family="Inter, Segoe UI, sans-serif" font-size="15">1000</text><line x1="160" y1="342.5" x2="1230" y2="342.5" stroke="#3a2b31" stroke-width="1"/><text x="132" y="348.5" text-anchor="end" fill="#7d6870" font-family="Inter, Segoe UI, sans-serif" font-size="15">1200</text><line x1="160" y1="286.2" x2="1230" y2="286.2" stroke="#3a2b31" stroke-width="1"/><text x="132" y="292.2" text-anchor="end" fill="#7d6870" font-family="Inter, Segoe UI, sans-serif" font-size="15">1400</text><line x1="160" y1="230.0" x2="1230" y2="230.0" stroke="#3a2b31" stroke-width="1"/><text x="132" y="236.0" text-anchor="end" fill="#7d6870" font-family="Inter, Segoe UI, sans-serif" font-size="15">1600</text><rect x="304" y="244.8" width="68" height="435.2" rx="16" fill="#a84757"/><rect x="380" y="372.7" width="68" height="307.3" rx="16" fill="#79d3bf"/><text x="338" y="232.8" text-anchor="middle" fill="#e4a6b3" font-family="Inter, Segoe UI, sans-serif" font-size="15">1548</text><text x="414" y="360.7" text-anchor="middle" fill="#9fe3d4" font-family="Inter, Segoe UI, sans-serif" font-size="15">1092</text><text x="376" y="716" text-anchor="middle" fill="#f7f1ef" font-family="Space Grotesk, Segoe UI, sans-serif" font-size="18" font-weight="700">2h job</text><text x="376" y="742" text-anchor="middle" fill="#bfa9ae" font-family="Inter, Segoe UI, sans-serif" font-size="14">29.4% spread</text><rect x="644" y="281.1" width="68" height="398.9" rx="16" fill="#a84757"/><rect x="720" y="363.8" width="68" height="316.2" rx="16" fill="#79d3bf"/><text x="678" y="269.1" text-anchor="middle" fill="#e4a6b3" font-family="Inter, Segoe UI, sans-serif" font-size="15">1418</text><text x="754" y="351.8" text-anchor="middle" fill="#9fe3d4" font-family="Inter, Segoe UI, sans-serif" font-size="15">1124</text><text x="716" y="716" text-anchor="middle" fill="#f7f1ef" font-family="Space Grotesk, Segoe UI, sans-serif" font-size="18" font-weight="700">3h job</text><text x="716" y="742" text-anchor="middle" fill="#bfa9ae" font-family="Inter, Segoe UI, sans-serif" font-size="14">20.7% spread</text><rect x="984" y="279.0" width="68" height="401.0" rx="16" fill="#a84757"/><rect x="1060" y="350.4" width="68" height="329.6" rx="16" fill="#79d3bf"/><text x="1018" y="267.0" text-anchor="middle" fill="#e4a6b3" font-family="Inter, Segoe UI, sans-serif" font-size="15">1426</text><text x="1094" y="338.4" text-anchor="middle" fill="#9fe3d4" font-family="Inter, Segoe UI, sans-serif" font-size="15">1172</text><text x="1056" y="716" text-anchor="middle" fill="#f7f1ef" font-family="Space Grotesk, Segoe UI, sans-serif" font-size="18" font-weight="700">4h job</text><text x="1056" y="742" text-anchor="middle" fill="#bfa9ae" font-family="Inter, Segoe UI, sans-serif" font-size="14">17.8% spread</text><rect x="1076" y="88" width="234" height="88" rx="16" fill="rgba(255,255,255,0.03)" stroke="rgba(255,255,255,0.06)"/><circle cx="1104" cy="116" r="8" fill="#a84757"/><text x="1120" y="122" fill="#bfa9ae" font-family="Inter, Segoe UI, sans-serif" font-size="14">Worst valid window</text><circle cx="1104" cy="146" r="8" fill="#79d3bf"/><text x="1120" y="152" fill="#bfa9ae" font-family="Inter, Segoe UI, sans-serif" font-size="14">Best valid window</text><text x="82" y="206" fill="#7d6870" font-family="Inter, Segoe UI, sans-serif" font-size="14">gCO2</text>
</svg>