<svg xmlns="http://www.w3.org/2000/svg" width="1200" height="760" viewBox="0 0 1200 760" fill="none" role="img" aria-labelledby="title desc">
<title>Carbon-Aware AI Scheduler visualization</title>
<desc>Generated from real carbon forecast and GPU profiling data in the project repository.</desc>
<defs>
  <linearGradient id="bg" x1="0" y1="0" x2="1" y2="1">
    <stop offset="0%" stop-color="#1c0d14"/>
    <stop offset="100%" stop-color="#090507"/>
  </linearGradient>
  <linearGradient id="accentLine" x1="0" y1="0" x2="1" y2="0">
    <stop offset="0%" stop-color="#a2f3e2"/>
    <stop offset="100%" stop-color="#6fd2bd"/>
  </linearGradient>
  <linearGradient id="warmLine" x1="0" y1="0" x2="1" y2="0">
    <stop offset="0%" stop-color="#ffb7c1"/>
    <stop offset="100%" stop-color="#8b2134"/>
  </linearGradient>
  <filter id="shadow" x="-20%" y="-20%" width="140%" height="140%">
    <feDropShadow dx="0" dy="18" stdDeviation="24" flood-color="#000" flood-opacity="0.35"/>
  </filter>
</defs>
<rect x="0.75" y="0.75" width="1198.5" height="758.5" rx="24" fill="url(#bg)" stroke="rgba(198,166,171,0.16)"/>
<text x="90" y="110" fill="#f8f4f1" font-family="Space Grotesk, Segoe UI, sans-serif" font-size="34" font-weight="700">GPU profiling feeds the scheduler when job energy is unknown</text><text x="90" y="145" fill="#b79fa4" font-family="Inter, Segoe UI, sans-serif" font-size="20">This sample log comes from the project&apos;s `nvidia-smi` workflow and gets converted into a kWh estimate before ranking windows.</text><line x1="90" y1="590.0" x2="1060" y2="590.0" stroke="rgba(255,255,255,0.08)" stroke-width="1"/><text x="34" y="595.0" fill="#b79fa4" font-family="Inter, Segoe UI, sans-serif" font-size="15">5.0 W</text><line x1="90" y1="450.0" x2="1060" y2="450.0" stroke="rgba(255,255,255,0.08)" stroke-width="1"/><text x="34" y="455.0" fill="#b79fa4" font-family="Inter, Segoe UI, sans-serif" font-size="15">7.1 W</text><line x1="90" y1="310.0" x2="1060" y2="310.0" stroke="rgba(255,255,255,0.08)" stroke-width="1"/><text x="34" y="315.0" fill="#b79fa4" font-family="Inter, Segoe UI, sans-serif" font-size="15">9.2 W</text><line x1="90" y1="170.0" x2="1060" y2="170.0" stroke="rgba(255,255,255,0.08)" stroke-width="1"/><text x="34" y="175.0" fill="#b79fa4" font-family="Inter, Segoe UI, sans-serif" font-size="15">11.4 W</text><line x1="90.0" y1="170" x2="90.0" y2="590" stroke="rgba(255,255,255,0.04)" stroke-width="1"/><text x="90.0" y="628" text-anchor="middle" fill="#b79fa4" font-family="Inter, Segoe UI, sans-serif" font-size="15">0s</text><line x1="250.2" y1="170" x2="250.2" y2="590" stroke="rgba(255,255,255,0.04)" stroke-width="1"/><text x="250.2" y="628" text-anchor="middle" fill="#b79fa4" font-family="Inter, Segoe UI, sans-serif" font-size="15">5s</text><line x1="410.4" y1="170" x2="410.4" y2="590" stroke="rgba(255,255,255,0.04)" stroke-width="1"/><text x="410.4" y="628" text-anchor="middle" fill="#b79fa4" font-family="Inter, Segoe UI, sans-serif" font-size="15">10s</text><line x1="570.5" y1="170" x2="570.5" y2="590" stroke="rgba(255,255,255,0.04)" stroke-width="1"/><text x="570.5" y="628" text-anchor="middle" fill="#b79fa4" font-family="Inter, Segoe UI, sans-serif" font-size="15">15s</text><line x1="730.7" y1="170" x2="730.7" y2="590" stroke="rgba(255,255,255,0.04)" stroke-width="1"/><text x="730.7" y="628" text-anchor="middle" fill="#b79fa4" font-family="Inter, Segoe UI, sans-serif" font-size="15">20s</text><line x1="890.9" y1="170" x2="890.9" y2="590" stroke="rgba(255,255,255,0.04)" stroke-width="1"/><text x="890.9" y="628" text-anchor="middle" fill="#b79fa4" font-family="Inter, Segoe UI, sans-serif" font-size="15">25s</text><line x1="1051.1" y1="170" x2="1051.1" y2="590" stroke="rgba(255,255,255,0.04)" stroke-width="1"/><text x="1051.1" y="628" text-anchor="middle" fill="#b79fa4" font-family="Inter, Segoe UI, sans-serif" font-size="15">30s</text><polygon points="90,590 90.0,524.7 125.1,590.0 160.2,585.4 195.7,581.4 231.4,580.1 266.5,580.1 302.1,582.1 337.8,579.5 375.2,580.1 412.8,580.8 450.3,581.4 486.6,579.5 523.7,582.1 561.8,578.8 599.0,578.8 636.6,439.7 672.5,537.3 707.8,459.5 743.7,170.0 779.1,249.8 814.3,330.2 849.2,381.0 884.3,390.9 919.7,372.4 954.3,377.0 989.6,342.1 1025.1,251.8 1060.0,249.1 1060,590" fill="rgba(111,210,189,0.18)"/><polyline points="90.0,524.7 125.1,590.0 160.2,585.4 195.7,581.4 231.4,580.1 266.5,580.1 302.1,582.1 337.8,579.5 375.2,580.1 412.8,580.8 450.3,581.4 486.6,579.5 523.7,582.1 561.8,578.8 599.0,578.8 636.6,439.7 672.5,537.3 707.8,459.5 743.7,170.0 779.1,249.8 814.3,330.2 849.2,381.0 884.3,390.9 919.7,372.4 954.3,377.0 989.6,342.1 1025.1,251.8 1060.0,249.1" fill="none" stroke="url(#accentLine)" stroke-width="5" stroke-linecap="round" stroke-linejoin="round"/><circle cx="743.7" cy="170.0" r="8" fill="#ffb7c1" stroke="#17090d" stroke-width="4"/><rect x="818" y="100" width="270" height="150" rx="20" fill="rgba(255,255,255,0.03)" stroke="rgba(255,255,255,0.06)"/><text x="844" y="136" fill="#b79fa4" font-family="Inter, Segoe UI, sans-serif" font-size="16">Profile summary</text><text x="844" y="180" fill="#f8f4f1" font-family="Space Grotesk, Segoe UI, sans-serif" font-size="30" font-weight="700">0.056 Wh total</text><text x="844" y="212" fill="#b79fa4" font-family="Inter, Segoe UI, sans-serif" font-size="16">28 samples | avg 6.78 W | peak 11.36 W</text><text x="761.7" y="154.0" fill="#ffd5dc" font-family="Inter, Segoe UI, sans-serif" font-size="16">Peak 11.36 W at 20.4s</text>
</svg>